HIERARCHY
ROOT joint_Root
{
  OFFSET 0 0 0
  CHANNELS 6 Xposition Yposition Zposition Zrotation Xrotation Yrotation
  JOINT Hips
  {
    OFFSET 0 93.9241 -3
    CHANNELS 6 Xposition Yposition Zposition Zrotation Xrotation Yrotation
    JOINT Spine
    {
      OFFSET 15.7357 0 0
      CHANNELS 6 Xposition Yposition Zposition Zrotation Xrotation Yrotation
      JOINT Chest
      {
        OFFSET 8.98455 -0.406207 0
        CHANNELS 6 Xposition Yposition Zposition Zrotation Xrotation Yrotation
        JOINT Neck
        {
          OFFSET 16.3773 0 0
          CHANNELS 6 Xposition Yposition Zposition Zrotation Xrotation Yrotation
          JOINT Head
          {
            OFFSET 6.45672 0 0
            CHANNELS 6 Xposition Yposition Zposition Zrotation Xrotation Yrotation
            End Site
            {
              OFFSET 0 0 0
            }
          }
        }
        JOINT Shoulder_L
        {
          OFFSET 12.9942 -0.242716 4.98039
          CHANNELS 6 Xposition Yposition Zposition Zrotation Xrotation Yrotation
          JOINT UpperArm_L
          {
            OFFSET 5.34809 0 0
            CHANNELS 6 Xposition Yposition Zposition Zrotation Xrotation Yrotation
            JOINT LowerArm_L
            {
              OFFSET 24.3286 1.87007e-05 0
              CHANNELS 6 Xposition Yposition Zposition Zrotation Xrotation Yrotation
              JOINT Hand_L
              {
                OFFSET 22.2916 0 0
                CHANNELS 6 Xposition Yposition Zposition Zrotation Xrotation Yrotation
                End Site
                {
                  OFFSET 0 0 0
                }
              }
            }
          }
        }
        JOINT Shoulder_R
        {
          OFFSET 12.9945 -0.242716 -4.98039
          CHANNELS 6 Xposition Yposition Zposition Zrotation Xrotation Yrotation
          JOINT UpperArm_R
          {
            OFFSET -5.34813 0 0
            CHANNELS 6 Xposition Yposition Zposition Zrotation Xrotation Yrotation
            JOINT LowerArm_R
            {
              OFFSET -24.3289 0.000322201 0
              CHANNELS 6 Xposition Yposition Zposition Zrotation Xrotation Yrotation
              JOINT Hand_R
              {
                OFFSET -22.2915 -0.000108084 0
                CHANNELS 6 Xposition Yposition Zposition Zrotation Xrotation Yrotation
                End Site
                {
                  OFFSET 0 0 0
                }
              }
            }
          }
        }
      }
    }
    JOINT UpperLeg_L
    {
      OFFSET -2.19248 -6.46944 0
      CHANNELS 6 Xposition Yposition Zposition Zrotation Xrotation Yrotation
      JOINT LowerLeg_L
      {
        OFFSET 39.0811 0 -1.23785e-05
        CHANNELS 6 Xposition Yposition Zposition Zrotation Xrotation Yrotation
        JOINT Foot_L
        {
          OFFSET 40.9854 0 -1.26872e-05
          CHANNELS 6 Xposition Yposition Zposition Zrotation Xrotation Yrotation
          JOINT Toes_L
          {
            OFFSET 11.7543 0 0
            CHANNELS 6 Xposition Yposition Zposition Zrotation Xrotation Yrotation
            End Site
            {
              OFFSET 0 0 0
            }
          }
        }
      }
    }
    JOINT UpperLeg_R
    {
      OFFSET -2.19251 6.46944 0
      CHANNELS 6 Xposition Yposition Zposition Zrotation Xrotation Yrotation
      JOINT LowerLeg_R
      {
        OFFSET -39.0811 -0.00228153 -0.0401928
        CHANNELS 6 Xposition Yposition Zposition Zrotation Xrotation Yrotation
        JOINT Foot_R
        {
          OFFSET -40.9854 0 0
          CHANNELS 6 Xposition Yposition Zposition Zrotation Xrotation Yrotation
          JOINT Toes_R
          {
            OFFSET -11.7543 0 0
            CHANNELS 6 Xposition Yposition Zposition Zrotation Xrotation Yrotation
            End Site
            {
              OFFSET 0 0 0
            }
          }
        }
      }
    }
  }
}
MOTION
Frames:	9
Frame Time:	0.0333333
0 0 0 0 0 -0 -0.311483 92.8145 -4.81727 91.8999 -4.91306 -8.50867 15.7357 5.1072e-06 -5.51765e-07 166.502 85.9089 -167.323 8.98455 -0.406207 -4.3199e-07 -5.82988 8.04228 -1.23552 16.3773 -1.3905e-06 -6.99897e-07 -12.3199 -5.96028 10.3887 6.45672 -1.25837e-06 -1.02172e-07 10.2922 -6.27122 18.3563 12.9942 -0.242716 4.98039 -88.1388 -9.30712 -93.6389 5.34809 -7.22636e-06 -6.2814e-07 -53.8344 -34.2694 10.0837 24.3286 1.87007e-05 4.90208e-06 4.70428 20.3369 -13.3209 22.2916 -9.88446e-07 4.63217e-06 47.1578 4.78489 11.6027 12.9945 -0.242716 -4.98039 89.8574 -5.65298 -106.447 -5.34813 -1.25947e-06 -3.79883e-06 -88.2859 -24.4715 -58.7639 -24.3289 0.000322201 -8.65921e-06 -27.0763 -59.6997 -30.6285 -22.2915 -0.000108084 -4.47941e-06 28.9965 5.25472 1.30905 -2.19248 -6.46944 -1.22534e-07 174.95 4.68933 -19.0921 39.0811 -6.73843e-06 -1.23785e-05 0.0302464 -0.0844374 14.5284 40.9854 -6.48686e-06 -1.26872e-05 4.23329 -5.91731 -54.1731 11.7543 -2.30145e-07 3.05095e-06 -0.00106404 0.000876612 -16.5774 -2.19251 6.46944 -1.45247e-06 -173.245 21.683 167.031 -39.0811 -0.00228153 -0.0401928 -0.0107558 0.0785517 14.879 -40.9854 7.72618e-06 5.99936e-06 0.311721 -22.3283 -64.2867 -11.7543 -5.6619e-06 -5.58687e-06 -0.0885031 0.0386087 -16.5736 
0 0 0 0 0 -0 -0.346352 92.7844 -4.47903 92.0232 -4.60592 -8.23053 15.7357 5.1072e-06 -5.51765e-07 168.118 85.9889 -169.092 8.98455 -0.406207 -4.3199e-07 -6.07858 7.95586 -1.5295 16.3773 -1.3905e-06 -6.99897e-07 -12.2804 -6.23963 10.6291 6.45672 -1.25837e-06 -1.02172e-07 11.0197 -6.18788 18.6756 12.9942 -0.242716 4.98039 -88.1833 -9.09897 -93.6589 5.34809 -7.22636e-06 -6.2814e-07 -53.5535 -34.3777 9.16533 24.3286 1.87007e-05 4.90208e-06 4.87856 20.6771 -13.589 22.2916 -9.88446e-07 4.63217e-06 47.9065 4.79235 11.4613 12.9945 -0.242716 -4.98039 89.8852 -5.23944 -106.256 -5.34813 -1.25947e-06 -3.79883e-06 -87.7464 -24.4327 -58.9022 -24.3289 0.000322201 -8.65921e-06 -28.3001 -59.2811 -32.0591 -22.2915 -0.000108084 -4.47941e-06 28.687 5.23806 1.74647 -2.19248 -6.46944 -1.22534e-07 174.756 4.59476 -18.756 39.0811 -6.73843e-06 -1.23785e-05 0.0344958 -0.0966604 14.8974 40.9854 -6.48686e-06 -1.26872e-05 4.25245 -5.55288 -54.6054 11.7543 -2.30145e-07 3.05095e-06 -0.00342771 0.00281297 -16.5773 -2.19251 6.46944 -1.45247e-06 -173.545 21.9651 167.482 -39.0811 -0.00228153 -0.0401928 -0.00678836 0.0759776 15.1007 -40.9854 7.72618e-06 5.99936e-06 0.0438528 -22.3375 -64.6889 -11.7543 -5.6619e-06 -5.58687e-06 -0.098124 0.0425685 -16.5735 
0 0 0 0 0 -0 -0.348468 92.7754 -4.20217 92.0624 -4.58998 -7.96192 15.7357 5.1072e-06 -5.51765e-07 169.52 85.9853 -170.6 8.98455 -0.406207 -4.3199e-07 -6.2634 8.01462 -1.72558 16.3773 -1.3905e-06 -6.99897e-07 -12.0987 -6.37026 10.8025 6.45672 -1.25837e-06 -1.02172e-07 11.482 -6.26301 19.1265 12.9942 -0.242716 4.98039 -88.1615 -9.22289 -93.6748 5.34809 -7.22636e-06 -6.2814e-07 -54.0268 -34.3399 8.14046 24.3286 1.87007e-05 4.90208e-06 4.88408 20.651 -13.6198 22.2916 -9.88446e-07 4.63217e-06 47.3189 4.79811 11.3522 12.9945 -0.242716 -4.98039 89.8778 -5.25775 -106.334 -5.34813 -1.25947e-06 -3.79883e-06 -87.5985 -24.4001 -58.5808 -24.3289 0.000322201 -8.65921e-06 -29.8202 -59.0356 -33.7594 -22.2915 -0.000108084 -4.47941e-06 28.4286 5.2311 1.92834 -2.19248 -6.46944 -1.22534e-07 174.663 4.64682 -18.3807 39.0811 -6.73843e-06 -1.23785e-05 0.0367622 -0.102939 15.0686 40.9854 -6.48686e-06 -1.26872e-05 4.25724 -5.68745 -54.8787 11.7543 -2.30145e-07 3.05095e-06 -0.00619842 0.00506303 -16.5772 -2.19251 6.46944 -1.45247e-06 -173.77 22.2648 168.007 -39.0811 -0.00228153 -0.0401928 -0.0106722 0.0739438 15.0581 -40.9854 7.72618e-06 5.99936e-06 -0.0841085 -22.0814 -64.8719 -11.7543 -5.6619e-06 -5.58687e-06 -0.105757 0.0458019 -16.5736 
0 0 0 0 0 -0 -0.341385 92.7557 -3.92923 92.115 -4.56233 -7.59028 15.7357 5.1072e-06 -5.51765e-07 169.951 85.9909 -171.111 8.98455 -0.406207 -4.3199e-07 -6.31946 8.02427 -1.8809 16.3773 -1.3905e-06 -6.99897e-07 -11.906 -6.46537 10.9318 6.45672 -1.25837e-06 -1.02172e-07 11.9003 -6.28337 19.5401 12.9942 -0.242716 4.98039 -88.1196 -9.48577 -93.7335 5.34809 -7.22636e-06 -6.2814e-07 -54.8832 -34.0711 7.00502 24.3286 1.87007e-05 4.90208e-06 4.63746 20.5207 -13.0286 22.2916 -9.88446e-07 4.63217e-06 47.2966 4.8072 11.1813 12.9945 -0.242716 -4.98039 89.8723 -5.30395 -106.382 -5.34813 -1.25947e-06 -3.79883e-06 -87.5191 -24.2022 -58.4061 -24.3289 0.000322201 -8.65921e-06 -29.9419 -59.0534 -33.8848 -22.2915 -0.000108084 -4.47941e-06 27.6949 5.2243 2.10214 -2.19248 -6.46944 -1.22534e-07 174.522 4.50256 -17.9454 39.0811 -6.73843e-06 -1.23785e-05 0.0390761 -0.1078 15.3446 40.9854 -6.48686e-06 -1.26872e-05 4.27929 -5.5498 -55.2269 11.7543 -2.30145e-07 3.05095e-06 -0.0101573 0.00831259 -16.577 -2.19251 6.46944 -1.45247e-06 -174.014 23.0476 168.56 -39.0811 -0.00228153 -0.0401928 -0.0114604 0.0785565 15.1455 -40.9854 7.72618e-06 5.99936e-06 -0.182656 -21.4015 -65.1208 -11.7543 -5.6619e-06 -5.58687e-06 -0.100519 0.0434509 -16.5737 
0 0 0 0 0 -0 -0.329001 92.7152 -3.63932 92.2213 -4.4781 -7.14443 15.7357 5.1072e-06 -5.51765e-07 169.912 86.0188 -171.133 8.98455 -0.406207 -4.3199e-07 -6.3193 7.97625 -2.00858 16.3773 -1.3905e-06 -6.99897e-07 -11.7568 -6.53311 11.0331 6.45672 -1.25837e-06 -1.02172e-07 12.3486 -6.19342 19.7137 12.9942 -0.242716 4.98039 -88.12 -9.60047 -93.8655 5.34809 -7.22636e-06 -6.2814e-07 -55.4808 -33.7072 6.1786 24.3286 1.87007e-05 4.90208e-06 4.3562 20.1857 -12.4489 22.2916 -9.88446e-07 4.63217e-06 47.2375 4.80402 11.2415 12.9945 -0.242716 -4.98039 89.8727 -5.19994 -106.404 -5.34813 -1.25947e-06 -3.79883e-06 -87.8314 -24.0905 -58.4673 -24.3289 0.000322201 -8.65921e-06 -29.9372 -59.3468 -33.7985 -22.2915 -0.000108084 -4.47941e-06 28.2256 5.22304 2.13417 -2.19248 -6.46944 -1.22534e-07 174.293 4.2138 -17.4971 39.0811 -6.73843e-06 -1.23785e-05 0.0437407 -0.119241 15.7649 40.9854 -6.48686e-06 -1.26872e-05 4.32567 -5.20222 -55.6698 11.7543 -2.30145e-07 3.05095e-06 -0.00819559 0.00672602 -16.577 -2.19251 6.46944 -1.45247e-06 -174.38 23.545 169.061 -39.0811 -0.00228153 -0.0401928 -0.00597747 0.0748266 15.5171 -40.9854 7.72618e-06 5.99936e-06 -0.403423 -21.0897 -65.526 -11.7543 -5.6619e-06 -5.58687e-06 -0.0915114 0.0393458 -16.5737 
0 0 0 0 0 -0 -0.304184 92.664 -3.36472 92.2785 -4.49781 -6.795 15.7357 5.1072e-06 -5.51765e-07 170.02 86.0481 -171.286 8.98455 -0.406207 -4.3199e-07 -6.34127 7.92685 -2.09975 16.3773 -1.3905e-06 -6.99897e-07 -11.7281 -6.65691 11.13 6.45672 -1.25837e-06 -1.02172e-07 12.9246 -6.07957 19.8074 12.9942 -0.242716 4.98039 -88.1462 -9.49385 -93.8978 5.34809 -7.22636e-06 -6.2814e-07 -55.6134 -33.7042 5.78611 24.3286 1.87007e-05 4.90208e-06 4.34803 20.2068 -12.4142 22.2916 -9.88446e-07 4.63217e-06 46.4631 4.79666 11.3804 12.9945 -0.242716 -4.98039 89.8751 -5.01561 -106.428 -5.34813 -1.25947e-06 -3.79883e-06 -88.1722 -23.8556 -58.4071 -24.3289 0.000322201 -8.65921e-06 -29.7983 -59.1697 -33.6986 -22.2915 -0.000108084 -4.47941e-06 28.5758 5.22533 2.07599 -2.19248 -6.46944 -1.22534e-07 174.141 4.06874 -17.2284 39.0811 -6.73843e-06 -1.23785e-05 0.0494367 -0.132752 16.3064 40.9854 -6.48686e-06 -1.26872e-05 4.34656 -5.1287 -56.1415 11.7543 -2.30145e-07 3.05095e-06 -0.00895172 0.00733802 -16.5771 -2.19251 6.46944 -1.45247e-06 -174.718 23.6386 169.474 -39.0811 -0.00228153 -0.0401928 -0.0179969 0.0738821 15.9164 -40.9854 7.72618e-06 5.99936e-06 -0.648195 -20.9975 -65.9373 -11.7543 -5.6619e-06 -5.58687e-06 -0.0966834 0.0416061 -16.5737 
0 0 0 0 0 -0 -0.263645 92.6394 -3.12739 92.3583 -4.59197 -6.60473 15.7357 5.1072e-06 -5.51765e-07 170.664 86.0708 -171.997 8.98455 -0.406207 -4.3199e-07 -6.43215 7.90579 -2.22789 16.3773 -1.3905e-06 -6.99897e-07 -11.6302 -6.73143 11.2622 6.45672 -1.25837e-06 -1.02172e-07 13.2317 -6.03749 19.9761 12.9942 -0.242716 4.98039 -88.172 -9.30241 -93.8311 5.34809 -7.22636e-06 -6.2814e-07 -55.581 -33.7907 5.54985 24.3286 1.87007e-05 4.90208e-06 4.4142 20.4214 -12.4749 22.2916 -9.88446e-07 4.63217e-06 46.8514 4.80542 11.2146 12.9945 -0.242716 -4.98039 89.8798 -4.76419 -106.447 -5.34813 -1.25947e-06 -3.79883e-06 -88.2014 -23.5211 -58.0375 -24.3289 0.000322201 -8.65921e-06 -29.9603 -58.9377 -33.9363 -22.2915 -0.000108084 -4.47941e-06 28.1037 5.21891 2.24052 -2.19248 -6.46944 -1.22534e-07 173.987 3.97621 -16.9697 39.0811 -6.73843e-06 -1.23785e-05 0.0522366 -0.139394 16.5041 40.9854 -6.48686e-06 -1.26872e-05 4.37511 -5.12704 -56.4201 11.7543 -2.30145e-07 3.05095e-06 -0.0107086 0.00876467 -16.577 -2.19251 6.46944 -1.45247e-06 -175.01 23.35 169.719 -39.0811 -0.00228153 -0.0401928 -0.00472079 0.0766729 16.1749 -40.9854 7.72618e-06 5.99936e-06 -0.887283 -21.1973 -66.2064 -11.7543 -5.6619e-06 -5.58687e-06 -0.0947541 0.0408525 -16.5737 
0 0 0 0 0 -0 -0.219566 92.6194 -2.91538 92.3559 -4.68996 -6.42842 15.7357 5.1072e-06 -5.51765e-07 171.026 86.0809 -172.356 8.98455 -0.406207 -4.3199e-07 -6.48492 7.89367 -2.2188 16.3773 -1.3905e-06 -6.99897e-07 -11.488 -6.74668 11.3234 6.45672 -1.25837e-06 -1.02172e-07 13.3005 -6.01864 20.007 12.9942 -0.242716 4.98039 -88.2132 -9.05724 -93.7907 5.34809 -7.22636e-06 -6.2814e-07 -55.5074 -33.9698 5.57478 24.3286 1.87007e-05 4.90208e-06 4.57154 20.4526 -12.8884 22.2916 -9.88446e-07 4.63217e-06 47.0362 4.7982 11.3512 12.9945 -0.242716 -4.98039 89.876 -4.55887 -106.559 -5.34813 -1.25947e-06 -3.79883e-06 -88.1168 -23.3009 -57.5956 -24.3289 0.000322201 -8.65921e-06 -30.7734 -58.9632 -34.7978 -22.2915 -0.000108084 -4.47941e-06 28.1507 5.21525 2.33369 -2.19248 -6.46944 -1.22534e-07 173.894 3.76047 -16.7392 39.0811 -6.73843e-06 -1.23785e-05 0.0555577 -0.147696 16.6881 40.9854 -6.48686e-06 -1.26872e-05 4.42376 -5.04011 -56.6729 11.7543 -2.30145e-07 3.05095e-06 -0.0139785 0.0114135 -16.5768 -2.19251 6.46944 -1.45247e-06 -175.208 23.151 170.039 -39.0811 -0.00228153 -0.0401928 -0.00745253 0.0792845 16.2635 -40.9854 7.72618e-06 5.99936e-06 -1.06959 -21.3241 -66.3867 -11.7543 -5.6619e-06 -5.58687e-06 -0.0921712 0.0397766 -16.5737 
0 0 0 0 0 -0 -0.182932 92.605 -2.7211 92.3897 -4.7462 -6.21817 15.7357 5.1072e-06 -5.51765e-07 170.835 86.0666 -172.156 8.98455 -0.406207 -4.3199e-07 -6.45483 7.91668 -2.20319 16.3773 -1.3905e-06 -6.99897e-07 -11.4187 -6.76741 11.3308 6.45672 -1.25837e-06 -1.02172e-07 13.2724 -6.10945 19.9386 12.9942 -0.242716 4.98039 -88.2562 -8.87471 -93.8366 5.34809 -7.22636e-06 -6.2814e-07 -55.4513 -34.123 5.76955 24.3286 1.87007e-05 4.90208e-06 4.81411 20.6636 -13.4233 22.2916 -9.88446e-07 4.63217e-06 46.7899 4.7934 11.4418 12.9945 -0.242716 -4.98039 89.884 -4.39697 -106.513 -5.34813 -1.25947e-06 -3.79883e-06 -88.1322 -23.1524 -57.2451 -24.3289 0.000322201 -8.65921e-06 -30.9182 -58.5584 -35.0674 -22.2915 -0.000108084 -4.47941e-06 28.1618 5.21153 2.42818 -2.19248 -6.46944 -1.22534e-07 173.776 3.53116 -16.4735 39.0811 -6.73843e-06 -1.23785e-05 0.0580839 -0.153966 16.8609 40.9854 -6.48686e-06 -1.26872e-05 4.47167 -4.86411 -56.9192 11.7543 -2.30145e-07 3.05095e-06 -0.0134378 0.0109744 -16.5768 -2.19251 6.46944 -1.45247e-06 -175.428 23.2551 170.379 -39.0811 -0.00228153 -0.0401928 -0.00686588 0.0821954 16.3376 -40.9854 7.72618e-06 5.99936e-06 -1.20053 -21.1979 -66.5463 -11.7543 -5.6619e-06 -5.58687e-06 -0.0848109 0.0365954 -16.5738 
